<?xml version="1.0" encoding="UTF-8" standalone="no"?>
<svg
   version="1.0"
   width="282.76419pt"
   height="224.87642pt"
   viewBox="0 0 282.76419 224.87642"
   preserveAspectRatio="xMidYMid"
   id="svg120"
   sodipodi:docname="algorithme2.svg"
   inkscape:version="1.2.2 (b0a8486541, 2022-12-01)"
   xmlns:inkscape="http://www.inkscape.org/namespaces/inkscape"
   xmlns:sodipodi="http://sodipodi.sourceforge.net/DTD/sodipodi-0.dtd"
   xmlns="http://www.w3.org/2000/svg"
   xmlns:svg="http://www.w3.org/2000/svg"
   xmlns:rdf="http://www.w3.org/1999/02/22-rdf-syntax-ns#"
   xmlns:cc="http://creativecommons.org/ns#"
   xmlns:dc="http://purl.org/dc/elements/1.1/">
  <metadata
     id="metadata126">
    <rdf:RDF>
      <cc:Work
         rdf:about="">
        <dc:format>image/svg+xml</dc:format>
        <dc:type
           rdf:resource="http://purl.org/dc/dcmitype/StillImage" />
      </cc:Work>
    </rdf:RDF>
  </metadata>
  <defs
     id="defs124">
    <radialGradient
       inkscape:collect="always"
       r="43.022999"
       gradientTransform="matrix(1,0,0,0.94966,0,2.3759)"
       cx="50.951"
       cy="47.199001"
       gradientUnits="userSpaceOnUse"
       id="radialGradient21952">
      <stop
         offset="0"
         style="stop-color:#ffff27"
         id="stop21948" />
      <stop
         offset=".25"
         style="stop-color:#fffa26;stop-opacity:.99216"
         id="stop21956" />
      <stop
         offset=".5"
         style="stop-color:#f7ca19;stop-opacity:.98824"
         id="stop21954" />
      <stop
         offset="1"
         style="stop-color:#e37a07;stop-opacity:0.976"
         id="stop21950" />
    </radialGradient>
    <radialGradient
       inkscape:collect="always"
       r="43.022999"
       gradientTransform="matrix(1,0,0,0.94966,0,2.3759)"
       cx="50.951"
       cy="47.199001"
       gradientUnits="userSpaceOnUse"
       id="radialGradient21952-3">
      <stop
         offset="0"
         style="stop-color:#ffff27"
         id="stop21948-6" />
      <stop
         offset=".25"
         style="stop-color:#fffa26;stop-opacity:.99216"
         id="stop21956-7" />
      <stop
         offset=".5"
         style="stop-color:#f7ca19;stop-opacity:.98824"
         id="stop21954-5" />
      <stop
         offset="1"
         style="stop-color:#e37a07;stop-opacity:0.976"
         id="stop21950-3" />
    </radialGradient>
  </defs>
  <sodipodi:namedview
     pagecolor="#ffffff"
     bordercolor="#666666"
     borderopacity="1"
     objecttolerance="10"
     gridtolerance="10"
     guidetolerance="10"
     inkscape:pageopacity="0"
     inkscape:pageshadow="2"
     inkscape:window-width="1920"
     inkscape:window-height="1028"
     id="namedview122"
     showgrid="false"
     inkscape:zoom="4.6195236"
     inkscape:cx="250.78344"
     inkscape:cy="128.25998"
     inkscape:window-x="0"
     inkscape:window-y="24"
     inkscape:window-maximized="1"
     inkscape:current-layer="svg120"
     inkscape:showpageshadow="0"
     inkscape:pagecheckerboard="0"
     inkscape:deskcolor="#d1d1d1"
     inkscape:document-units="pt" />
  <g
     transform="matrix(0.1,0,0,-0.1,-13.336184,239.87641)"
     fill="#000000"
     stroke="none"
     id="g118">
    <path
       d="m 1238,2358 c -2,-35 -6,-42 -20,-40 -23,4 -22,0 2,-48 24,-47 26,-83 5,-100 -19,-16 -19,-30 0,-66 8,-16 15,-34 15,-40 0,-6 -39,-34 -87,-61 -49,-28 -143,-83 -211,-122 L 819,1810 H 675 530 v -120 c 0,-100 -2,-120 -15,-120 -18,0 -19,-5 -2,-33 8,-16 13,-112 17,-340 l 5,-318 345,-2 345,-2 3,-50 c 2,-27 9,-53 15,-57 18,-11 87,-10 87,2 0,6 -16,10 -35,10 -35,0 -35,1 -35,43 0,84 17,81 -358,74 -252,-5 -333,-3 -339,6 -5,7 -9,135 -10,286 -1,250 0,279 18,325 10,28 19,52 19,52 0,1 -8,4 -19,7 -17,4 -19,16 -20,111 l -2,106 h 131 131 l 97,56 c 53,31 147,85 207,120 61,35 118,64 129,64 10,0 91,-42 180,-94 88,-51 180,-103 204,-115 23,-12 42,-23 42,-26 0,-2 -33,-23 -72,-46 -40,-23 -132,-77 -204,-120 -73,-44 -134,-79 -138,-79 -3,0 -100,54 -217,121 -116,66 -213,118 -216,116 -2,-3 90,-59 204,-125 206,-119 208,-120 211,-156 l 3,-36 H 1026 810 v -100 -100 h 210 c 180,0 210,-2 210,-15 0,-13 -28,-15 -194,-15 -107,0 -201,-3 -210,-6 -13,-5 -16,-23 -16,-95 v -89 h 215 215 v -40 -40 h 355 355 v 180 c 0,153 2,180 15,180 19,0 19,17 0,50 -12,20 -14,93 -15,391 v 367 l -31,6 c -17,3 -56,6 -85,6 -48,0 -54,2 -54,20 v 20 l -40,-20 c -36,-18 -58,-20 -248,-20 -148,0 -211,3 -220,12 -16,16 -15,77 3,108 19,33 19,50 0,50 -11,0 -15,11 -15,40 0,53 -18,51 -22,-2 z m 512,-253 c 27,-14 30,-14 30,0 0,12 14,15 69,15 h 68 l 7,-207 c 12,-338 7,-491 -16,-536 -19,-38 -19,-39 0,-44 17,-4 19,-17 21,-174 l 2,-169 h -335 -336 v 30 30 l 198,2 197,3 3,84 c 2,61 -1,87 -10,92 -7,5 -100,9 -205,9 -165,0 -193,2 -193,15 0,13 29,15 205,15 h 205 v 100 100 h -199 -199 l -4,29 c -4,29 0,33 154,123 264,156 284,169 266,182 -8,6 -106,63 -217,126 -193,110 -201,116 -201,146 0,17 3,34 7,37 3,4 107,7 230,7 181,0 230,-3 253,-15 z m -110,-740 v -85 H 1235 830 v 85 85 h 405 405 z m -2,-217 3,-78 H 1235 830 v 80 80 l 403,-2 402,-3 z"
       id="path2" />
    <path
       d="m 987,1413 c -11,-10 -8,-93 3,-93 6,0 10,7 10,15 0,8 7,15 15,15 9,0 18,-7 21,-15 4,-8 13,-15 21,-15 12,0 13,3 3,14 -8,11 -9,20 -2,33 15,26 -3,53 -37,53 -15,0 -31,-3 -34,-7 z m 58,-28 c 0,-5 -10,-11 -22,-13 -16,-2 -23,2 -23,13 0,11 7,15 23,13 12,-2 22,-7 22,-13 z"
       id="path4" />
    <path
       d="m 1277,1413 c -11,-10 -8,-93 3,-93 6,0 10,7 10,15 0,8 6,15 14,15 7,0 19,-7 26,-15 7,-8 17,-15 22,-15 6,0 5,6 -2,14 -8,11 -9,20 -2,33 15,26 -3,53 -37,53 -15,0 -31,-3 -34,-7 z m 54,-28 c 0,-5 -9,-11 -21,-13 -20,-3 -27,8 -13,22 10,9 34,3 34,-9 z"
       id="path6" />
    <path
       d="m 1442,1408 c -18,-18 -15,-36 8,-48 27,-14 26,-33 -1,-25 -15,5 -19,4 -15,-4 4,-6 18,-11 32,-11 19,0 24,5 24,24 0,16 -7,27 -20,31 -11,3 -20,11 -20,16 0,6 9,7 20,4 24,-7 27,10 4,19 -20,8 -18,8 -32,-6 z"
       id="path8" />
    <path
       d="m 1132,1383 c -21,-15 -21,-16 -5,-29 21,-16 37,-18 28,-5 -3,6 14,12 37,14 l 43,4 -44,1 c -34,2 -42,5 -37,17 7,18 7,18 -22,-2 z"
       id="path10" />
    <path
       d="m 1375,1350 c 3,-5 13,-10 21,-10 8,0 14,5 14,10 0,6 -9,10 -21,10 -11,0 -17,-4 -14,-10 z"
       id="path12" />
    <path
       d="m 995,1180 c -35,-39 9,-96 60,-76 24,9 19,46 -6,46 -19,0 -20,-2 -8,-16 11,-14 10,-15 -11,-12 -19,2 -25,9 -25,28 0,22 4,25 33,24 34,-2 43,10 16,20 -26,10 -40,7 -59,-14 z"
       id="path14" />
    <path
       d="m 1105,1184 c -19,-20 -16,-63 6,-77 24,-15 66,-1 72,25 8,28 -17,68 -43,68 -10,0 -26,-7 -35,-16 z m 60,-34 c 0,-18 -6,-26 -23,-28 -24,-4 -38,18 -28,44 3,9 15,14 28,12 17,-2 23,-10 23,-28 z"
       id="path16" />
    <path
       d="m 1205,1190 c -3,-5 3,-10 14,-10 18,0 21,-6 21,-40 0,-22 5,-40 10,-40 6,0 10,18 10,40 0,22 5,40 10,40 6,0 10,5 10,10 0,6 -15,10 -34,10 -19,0 -38,-4 -41,-10 z"
       id="path18" />
    <path
       d="m 1305,1184 c -19,-20 -16,-63 6,-77 24,-15 66,-1 72,25 8,28 -17,68 -43,68 -10,0 -26,-7 -35,-16 z m 60,-34 c 0,-18 -6,-26 -23,-28 -13,-2 -25,3 -28,12 -10,26 4,48 28,44 17,-2 23,-10 23,-28 z"
       id="path20" />
    <path
       d="m 1440,1190 c 0,-5 7,-10 16,-10 12,0 14,-5 9,-17 -14,-33 -17,-63 -7,-63 5,0 12,12 15,28 3,15 8,37 12,50 6,19 4,22 -19,22 -14,0 -26,-4 -26,-10 z"
       id="path22" />
    <path
       d="m 634,1925 c -9,-23 3,-45 23,-44 17,1 17,2 1,6 -25,6 -22,21 5,26 21,4 21,4 -3,6 -23,2 -24,3 -5,11 18,8 18,9 2,9 -10,1 -20,-6 -23,-14 z"
       id="path24" />
    <path
       d="m 695,1929 c -4,-6 2,-13 14,-16 12,-3 21,-10 21,-15 0,-6 -10,-8 -21,-5 -16,4 -19,3 -11,-5 12,-12 42,-4 42,13 0,6 -10,13 -22,17 -21,5 -21,6 -2,13 16,6 16,8 2,8 -9,1 -20,-4 -23,-10 z"
       id="path26" />
    <path
       d="m 597,1913 c -4,-3 -7,-13 -7,-22 1,-13 3,-13 11,2 11,19 8,33 -4,20 z"
       id="path28" />
    <path
       d="m 172,1872 c 13,-5 15,-11 8,-22 -5,-8 -9,-26 -9,-40 1,-23 2,-23 9,5 4,17 11,38 15,48 6,13 2,17 -16,16 -19,0 -20,-2 -7,-7 z"
       id="path30" />
    <path
       d="m 1070,1820 c 0,-11 9,-25 20,-32 29,-18 25,-31 -7,-23 -26,6 -27,5 -12,-10 21,-21 59,-11 59,15 0,11 -9,24 -20,30 -27,14 -26,30 2,22 14,-3 19,-2 14,6 -4,7 -18,12 -32,12 -17,0 -24,-5 -24,-20 z"
       id="path32" />
    <path
       d="m 1300,1796 c 0,-25 5,-48 10,-51 6,-3 10,3 10,14 0,26 8,26 36,0 l 22,-20 -2,48 c -1,48 -1,48 -38,51 l -38,3 z m 58,16 c 2,-7 -6,-12 -17,-12 -21,0 -27,11 -14,24 9,9 26,2 31,-12 z"
       id="path34" />
    <path
       d="m 1404,1828 c -5,-8 0,-9 14,-6 23,6 39,-6 22,-17 -5,-3 -10,-14 -10,-23 0,-14 3,-13 21,5 13,12 19,28 16,37 -7,18 -52,22 -63,4 z"
       id="path36" />
    <path
       d="m 1185,1810 c 3,-5 13,-10 21,-10 22,0 17,-17 -8,-23 -12,-4 -19,-9 -15,-13 7,-8 67,15 67,26 0,8 -45,30 -61,30 -6,0 -7,-4 -4,-10 z"
       id="path38" />
    <path
       d="m 165,1380 c -4,-6 -4,-14 -1,-17 3,-4 6,-1 6,5 0,7 5,12 10,12 16,0 12,-27 -5,-34 -23,-8 -19,-46 5,-46 17,0 19,6 17,42 -2,41 -18,60 -32,38 z m 25,-55 c 0,-8 -4,-15 -10,-15 -5,0 -10,7 -10,15 0,8 5,15 10,15 6,0 10,-7 10,-15 z"
       id="path40" />
    <path
       d="m 167,1204 c -10,-10 -9,-42 2,-48 4,-3 6,6 3,19 -2,15 0,25 7,25 17,0 14,-68 -4,-73 -11,-4 -10,-4 2,-3 14,1 18,10 18,40 0,37 -13,55 -28,40 z"
       id="path42" />
    <path
       d="m 820,770 c 20,-13 70,-13 70,0 0,6 -19,10 -42,10 -32,0 -39,-3 -28,-10 z"
       id="path44" />
    <path
       d="m 920,770 c 0,-5 18,-10 40,-10 22,0 40,5 40,10 0,6 -18,10 -40,10 -22,0 -40,-4 -40,-10 z"
       id="path46" />
    <path
       d="m 1030,770 c 0,-5 18,-10 40,-10 22,0 40,5 40,10 0,6 -18,10 -40,10 -22,0 -40,-4 -40,-10 z"
       id="path48" />
    <path
       d="m 1140,770 c 0,-5 19,-10 43,-9 32,0 37,2 22,9 -28,12 -65,12 -65,0 z"
       id="path50" />
    <path
       d="m 1360,770 c 0,-5 18,-10 40,-10 22,0 40,5 40,10 0,6 -18,10 -40,10 -22,0 -40,-4 -40,-10 z"
       id="path52" />
    <path
       d="m 1470,770 c 0,-5 18,-10 40,-10 22,0 40,5 40,10 0,6 -18,10 -40,10 -22,0 -40,-4 -40,-10 z"
       id="path54" />
    <path
       d="m 1575,770 c 3,-5 24,-10 46,-10 21,0 39,5 39,10 0,6 -21,10 -46,10 -27,0 -43,-4 -39,-10 z"
       id="path56" />
    <path
       d="m 810,700 c 0,-22 5,-40 10,-40 6,0 10,18 10,40 0,22 -4,40 -10,40 -5,0 -10,-18 -10,-40 z"
       id="path58" />
    <path
       d="m 1640,700 c 0,-22 5,-40 10,-40 6,0 10,18 10,40 0,22 -4,40 -10,40 -5,0 -10,-18 -10,-40 z"
       id="path60" />
    <path
       d="m 192,718 c -15,-15 -16,-60 0,-76 25,-25 49,27 32,72 -7,19 -16,20 -32,4 z m 28,-39 c 0,-19 -5,-29 -15,-29 -15,0 -22,50 -9,63 12,12 24,-4 24,-34 z"
       id="path62" />
    <path
       d="m 135,710 c -3,-5 -2,-10 4,-10 5,0 12,-15 14,-32 3,-29 4,-27 5,10 2,39 -9,55 -23,32 z"
       id="path64" />
    <path
       d="m 1226,682 c -10,-17 10,-67 29,-71 16,-3 17,-1 7,12 -7,8 -11,25 -10,37 3,23 -15,39 -26,22 z"
       id="path66" />
    <path
       d="m 1154,666 c -10,-26 1,-51 24,-54 26,-4 30,14 5,21 -13,3 -12,5 5,6 17,1 22,6 20,19 -4,22 -46,29 -54,8 z"
       id="path68" />
    <path
       d="m 1281,666 c -7,-8 -10,-24 -6,-36 7,-21 39,-28 50,-10 3,6 -3,10 -14,10 -13,0 -21,7 -21,16 0,12 6,15 21,11 13,-3 19,-1 16,6 -6,18 -32,20 -46,3 z"
       id="path70" />
    <path
       d="m 810,591 c 0,-41 11,-51 56,-51 13,0 24,5 24,10 0,6 -13,10 -30,10 -28,0 -30,3 -30,35 0,19 -4,35 -10,35 -5,0 -10,-18 -10,-39 z"
       id="path72" />
    <path
       d="m 1640,595 c 0,-34 -1,-35 -37,-35 -26,0 -34,-3 -26,-11 6,-6 26,-9 44,-7 32,3 34,5 37,46 2,25 -1,42 -7,42 -6,0 -11,-16 -11,-35 z"
       id="path74" />
    <path
       d="m 920,550 c 0,-5 18,-10 40,-10 22,0 40,5 40,10 0,6 -18,10 -40,10 -22,0 -40,-4 -40,-10 z"
       id="path76" />
    <path
       d="m 1030,550 c 0,-5 18,-10 40,-10 22,0 40,5 40,10 0,6 -18,10 -40,10 -22,0 -40,-4 -40,-10 z"
       id="path78" />
    <path
       d="m 1140,550 c 0,-5 18,-10 40,-10 22,0 40,5 40,10 0,6 -18,10 -40,10 -22,0 -40,-4 -40,-10 z"
       id="path80" />
    <path
       d="m 1242,548 c -17,-17 -16,-111 1,-106 6,3 13,25 15,51 3,46 4,47 38,47 18,0 34,5 34,10 0,14 -74,12 -88,-2 z"
       id="path82" />
    <path
       d="m 1360,550 c 0,-5 15,-10 34,-10 19,0 38,5 41,10 4,6 -10,10 -34,10 -23,0 -41,-4 -41,-10 z"
       id="path84" />
    <path
       d="m 1470,550 c 0,-5 15,-10 34,-10 19,0 38,5 41,10 4,6 -10,10 -34,10 -23,0 -41,-4 -41,-10 z"
       id="path86" />
    <path
       d="m 370,238 c 0,-28 22,-88 30,-83 5,3 12,20 16,38 4,19 9,26 12,17 16,-50 24,-62 31,-54 13,13 26,101 13,89 -6,-5 -12,-21 -15,-35 -4,-24 -4,-23 -12,8 -4,17 -13,32 -20,32 -7,0 -16,-15 -21,-32 l -8,-33 -3,33 c -4,30 -23,47 -23,20 z"
       id="path88" />
    <path
       d="m 490,206 c 0,-25 5,-48 10,-51 6,-4 10,5 10,20 0,22 4,26 22,23 14,-2 25,-13 29,-28 5,-17 7,-8 7,30 0,30 -2,47 -5,38 -6,-22 -53,-25 -53,-3 0,8 -4,15 -10,15 -5,0 -10,-20 -10,-44 z"
       id="path90" />
    <path
       d="m 590,206 c 0,-25 5,-48 10,-51 6,-4 10,13 10,44 0,28 -4,51 -10,51 -5,0 -10,-20 -10,-44 z"
       id="path92" />
    <path
       d="m 630,200 c 0,-49 1,-50 29,-50 17,0 33,5 36,10 4,6 -5,10 -19,10 -24,0 -26,4 -26,40 0,22 -4,40 -10,40 -5,0 -10,-22 -10,-50 z"
       id="path94" />
    <path
       d="m 710,200 v -50 h 34 c 19,0 38,5 41,10 4,6 -7,10 -24,10 -21,0 -31,5 -31,15 0,9 9,15 25,15 34,0 32,18 -2,23 l -28,4 28,2 c 40,2 33,21 -8,21 h -35 z"
       id="path96" />
    <path
       d="m 847,243 c -15,-14 -5,-32 23,-42 17,-5 30,-15 30,-21 0,-17 -29,-23 -45,-10 -9,8 -15,8 -15,2 0,-6 8,-13 19,-17 52,-16 73,39 21,56 -40,14 -39,33 0,25 19,-3 29,-2 25,4 -7,11 -48,14 -58,3 z"
       id="path98" />
    <path
       d="m 1081,203 c 1,-27 4,-38 6,-25 6,29 27,28 48,-4 9,-14 19,-23 22,-20 3,3 1,12 -6,19 -6,8 -8,27 -5,46 6,30 6,31 -30,31 h -36 z m 59,22 c 0,-9 -9,-15 -25,-15 -16,0 -25,6 -25,15 0,9 9,15 25,15 16,0 25,-6 25,-15 z"
       id="path100" />
    <path
       d="m 1210,201 c 0,-49 1,-51 29,-51 37,0 53,20 49,62 -3,30 -6,33 -40,36 l -38,3 z m 65,19 c 11,-18 -6,-50 -26,-50 -14,0 -19,7 -19,30 0,23 5,30 19,30 11,0 23,-5 26,-10 z"
       id="path102" />
    <path
       d="m 1322,238 c -28,-28 -3,-88 37,-88 25,0 41,20 41,50 0,31 -17,50 -45,50 -12,0 -26,-5 -33,-12 z m 62,-25 c 8,-21 -17,-48 -38,-40 -9,4 -16,18 -16,32 0,20 5,25 24,25 13,0 27,-8 30,-17 z"
       id="path104" />
    <path
       d="m 1461,203 c 1,-27 4,-38 6,-25 6,29 29,28 49,-3 20,-30 31,-26 12,4 -9,15 -10,23 -1,32 19,19 3,39 -33,39 h -34 z m 59,22 c 0,-9 -9,-15 -25,-15 -16,0 -25,6 -25,15 0,9 9,15 25,15 16,0 25,-6 25,-15 z"
       id="path106" />
    <path
       d="m 1751,203 c 1,-27 4,-38 6,-25 6,29 29,28 49,-3 9,-14 19,-23 22,-21 3,3 -1,12 -7,20 -8,10 -9,21 -3,33 15,28 3,43 -34,43 h -34 z m 60,22 c 0,-5 -12,-11 -26,-13 -18,-2 -25,1 -25,13 0,12 7,15 25,13 14,-2 26,-7 26,-13 z"
       id="path108" />
    <path
       d="m 1977,243 c -15,-14 -5,-32 23,-42 17,-5 30,-15 30,-21 0,-18 -29,-23 -47,-9 -14,12 -16,12 -11,-1 6,-20 35,-25 53,-10 23,19 18,37 -15,49 -36,12 -41,35 -5,29 13,-3 22,-1 19,3 -6,11 -38,12 -47,2 z"
       id="path110" />
    <path
       d="m 1596,212 c -15,-18 -15,-20 6,-38 18,-16 21,-17 15,-2 -5,14 2,18 41,21 l 47,3 -47,2 c -38,2 -46,5 -42,17 8,20 1,19 -20,-3 z"
       id="path112" />
    <path
       d="m 1888,183 c 7,-3 16,-2 19,1 4,3 -2,6 -13,5 -11,0 -14,-3 -6,-6 z"
       id="path114" />
    <path
       d="m 983,163 c 9,-2 23,-2 30,0 6,3 -1,5 -18,5 -16,0 -22,-2 -12,-5 z"
       id="path116" />
  </g>
  <g
     transform="matrix(1.1061342,0,0,1.1061342,178.68425,11.432657)"
     inkscape:label="Layer 1"
     id="layer1-7"
     style="opacity:0.5">
    <path
       clip-path="none"
       mask="none"
       d="M 36.536,32.822 C 49.235,0.966 49.705,1.088 62.891,31.7617 c 34.15,2.198 39.384,9.6218 6.5131,23.932 19.821,46.048 -0.79153,28.382 -19.842,13.178 -22.357,25.013 -29.54,22.639 -18.782,-12.117 -7.2813,-8.5014 -45.095,-18.742 5.7558,-23.932 z"
       inkscape:connector-curvature="0"
       style="opacity:0.8;fill:#ffff27;fill-opacity:0;fill-rule:evenodd;stroke:#000000;stroke-width:5;stroke-linecap:round;stroke-linejoin:round"
       sodipodi:nodetypes="cccccc"
       id="path3153-5" />
  </g>
  <g
     transform="matrix(1.1061342,0,0,1.1061342,178.84149,121.59507)"
     inkscape:label="Layer 1"
     id="layer1-3"
     style="opacity:0.5">
    <path
       clip-path="none"
       mask="none"
       d="M 36.536,32.822 C 49.235,0.966 49.705,1.088 62.891,31.7617 c 34.15,2.198 39.384,9.6218 6.5131,23.932 19.821,46.048 -0.79153,28.382 -19.842,13.178 -22.357,25.013 -29.54,22.639 -18.782,-12.117 -7.2813,-8.5014 -45.095,-18.742 5.7558,-23.932 z"
       inkscape:connector-curvature="0"
       style="opacity:0.8;fill:#ffff27;fill-opacity:0;fill-rule:evenodd;stroke:#000000;stroke-width:5;stroke-linecap:round;stroke-linejoin:round"
       sodipodi:nodetypes="cccccc"
       id="path3153-56" />
  </g>
  <g
     transform="matrix(1.1105488,0,0,1.1105488,178.54837,11.182108)"
     inkscape:label="Layer 1"
     id="layer1">
    <path
       d="M 36.536,32.822 C 49.235,0.966 49.705,1.088 62.891,31.7617 c 34.15,2.198 39.384,9.6218 6.5131,23.932 19.821,46.048 -0.79153,28.382 -19.842,13.178 -22.357,25.013 -29.54,22.639 -18.782,-12.117 -7.2813,-8.5014 -45.095,-18.742 5.7558,-23.932 z"
       inkscape:connector-curvature="0"
       style="opacity:0.8;fill:url(#radialGradient21952);fill-rule:evenodd;stroke:#000000;stroke-width:5;stroke-linecap:round;stroke-linejoin:round"
       sodipodi:nodetypes="cccccc"
       id="path3153" />
  </g>
  <g
     transform="matrix(1.1105488,0,0,1.1105488,178.6802,121.45017)"
     inkscape:label="Layer 1"
     id="layer1-5">
    <path
       d="M 36.536,32.822 C 49.235,0.966 49.705,1.088 62.891,31.7617 c 34.15,2.198 39.384,9.6218 6.5131,23.932 19.821,46.048 -0.79153,28.382 -19.842,13.178 -22.357,25.013 -29.54,22.639 -18.782,-12.117 -7.2813,-8.5014 -45.095,-18.742 5.7558,-23.932 z"
       inkscape:connector-curvature="0"
       style="opacity:0.8;fill:url(#radialGradient21952-3);fill-rule:evenodd;stroke:#000000;stroke-width:5;stroke-linecap:round;stroke-linejoin:round"
       sodipodi:nodetypes="cccccc"
       id="path3153-6" />
  </g>
</svg>
